<svg width="200" height="230" viewBox="0 0 200 230" fill="none" xmlns="http://www.w3.org/2000/svg">
<rect opacity="0.2" y="0.677734" width="200" height="228.475" rx="4.0678" fill="#F2F4F8"/>
<path d="M117.57 200.068H106.31V202.281H109.76C111.17 202.281 112.125 202.888 112.45 203.93H106.31V205.665H112.45C112.146 206.728 111.192 207.336 109.76 207.336H106.31V209.549H110.02L113.079 215.254H115.965L112.58 209.071C113.947 208.486 114.858 207.227 115.097 205.665H117.57V203.93H115.097C114.967 203.105 114.641 202.389 114.099 201.804H117.57V200.068ZM124.604 215.254V200.068H122.63C121.545 201.239 120.157 202.042 118.703 202.368V204.646C120.07 204.364 121.198 203.886 122.218 202.997V215.254H124.604ZM132.138 215.428C135.435 215.428 137.561 213.345 137.561 210.199C137.561 207.162 135.5 205.145 132.42 205.145C131.357 205.145 130.185 205.622 129.447 206.294L130.055 202.281H136.455V200.068H128.189L126.974 208.464L128.818 208.854C129.534 207.791 130.554 207.206 131.877 207.206C133.786 207.206 135.001 208.355 135.001 210.199C135.001 212 133.83 213.193 132.051 213.193C130.402 213.193 129.187 212.26 128.905 210.807L126.584 211.219C126.996 213.779 129.165 215.428 132.138 215.428ZM150.001 215.428C153.819 215.428 156.01 212.326 156.01 207.661C156.01 202.997 153.819 199.894 150.001 199.894C146.161 199.894 143.991 202.997 143.991 207.661C143.991 212.326 146.161 215.428 150.001 215.428ZM150.001 213.193C147.745 213.193 146.551 211.089 146.551 207.661C146.551 204.233 147.745 202.107 150.001 202.107C152.235 202.107 153.45 204.233 153.45 207.661C153.45 211.089 152.235 213.193 150.001 213.193ZM163.449 215.428C167.267 215.428 169.459 212.326 169.459 207.661C169.459 202.997 167.267 199.894 163.449 199.894C159.609 199.894 157.44 202.997 157.44 207.661C157.44 212.326 159.609 215.428 163.449 215.428ZM163.449 213.193C161.193 213.193 160 211.089 160 207.661C160 204.233 161.193 202.107 163.449 202.107C165.684 202.107 166.899 204.233 166.899 207.661C166.899 211.089 165.684 213.193 163.449 213.193ZM176.897 215.428C180.716 215.428 182.907 212.326 182.907 207.661C182.907 202.997 180.716 199.894 176.897 199.894C173.057 199.894 170.888 202.997 170.888 207.661C170.888 212.326 173.057 215.428 176.897 215.428ZM176.897 213.193C174.641 213.193 173.448 211.089 173.448 207.661C173.448 204.233 174.641 202.107 176.897 202.107C179.132 202.107 180.347 204.233 180.347 207.661C180.347 211.089 179.132 213.193 176.897 213.193Z" fill="white"/>
<path d="M19.6475 205.576V199.281H21.9051V198.458H16.4543V199.281H18.7221V205.576H19.6475ZM24.1576 205.658C25.6729 205.658 26.7712 204.549 26.7712 203.013C26.7712 201.478 25.6729 200.369 24.1576 200.369C22.6322 200.369 21.5542 201.478 21.5542 203.013C21.5542 204.549 22.6322 205.658 24.1576 205.658ZM24.1576 204.885C23.1305 204.885 22.439 204.112 22.439 203.013C22.439 201.915 23.1305 201.142 24.1576 201.142C25.1847 201.142 25.8762 201.915 25.8762 203.013C25.8762 204.112 25.1847 204.885 24.1576 204.885ZM30.4722 204.742C30.2688 204.844 30.0349 204.874 29.8315 204.874C29.3841 204.874 29.079 204.61 29.079 204.071V201.213H30.4519V200.451H29.079V198.895H28.2146V200.451H27.2587V201.213H28.2146V204.041C28.2146 205.169 28.8553 205.658 29.7298 205.658C30.0044 205.658 30.279 205.627 30.5332 205.535L30.4722 204.742ZM33.3644 200.369C32.2864 200.369 31.4424 201.03 31.2898 202.047L32.0932 202.2C32.1644 201.508 32.6627 201.091 33.3644 201.091C34.1169 201.091 34.6153 201.539 34.6153 202.241V202.342L33.6186 202.454C31.9814 202.617 31.178 203.156 31.178 204.142C31.178 205.027 31.8797 205.658 32.9068 205.658C33.6492 205.658 34.3203 205.291 34.6153 204.702V205.576H35.4695V202.291C35.4695 201.102 34.6051 200.369 33.3644 200.369ZM33.039 204.946C32.4492 204.946 32.0424 204.61 32.0424 204.132C32.0424 203.593 32.5814 203.237 33.6186 203.125L34.6153 203.013V203.258C34.6153 204.285 34.0356 204.946 33.039 204.946ZM37.7394 205.576V198.376H36.8749V205.576H37.7394ZM39.7596 201.59C40.1054 201.59 40.3799 201.335 40.3799 200.98C40.3799 200.634 40.1054 200.369 39.7596 200.369C39.3935 200.369 39.1392 200.634 39.1392 200.98C39.1392 201.335 39.3935 201.59 39.7596 201.59ZM39.7596 205.658C40.1054 205.658 40.3799 205.403 40.3799 205.047C40.3799 204.702 40.1054 204.437 39.7596 204.437C39.3935 204.437 39.1392 204.702 39.1392 205.047C39.1392 205.403 39.3935 205.658 39.7596 205.658Z" fill="#8D8D95"/>
<line opacity="0.08" x1="2.96348e-08" y1="182.712" x2="200" y2="182.712" stroke="#D5D5DA" stroke-width="0.677966"/>
<path d="M45.0577 112.017V109.027H46.8374C48.2204 109.027 49.1153 108.214 49.1153 106.963C49.1153 105.712 48.2204 104.898 46.8374 104.898H44.1323V112.017H45.0577ZM45.0577 105.722H46.8068C47.6509 105.722 48.1594 106.19 48.1594 106.963C48.1594 107.736 47.6509 108.193 46.8068 108.193H45.0577V105.722ZM51.7337 106.81C50.6558 106.81 49.8117 107.471 49.6591 108.488L50.4625 108.641C50.5337 107.949 51.032 107.532 51.7337 107.532C52.4863 107.532 52.9846 107.98 52.9846 108.681V108.783L51.988 108.895C50.3507 109.058 49.5473 109.597 49.5473 110.583C49.5473 111.468 50.249 112.098 51.2761 112.098C52.0185 112.098 52.6897 111.732 52.9846 111.143V112.017H53.8388V108.732C53.8388 107.543 52.9744 106.81 51.7337 106.81ZM51.4083 111.387C50.8185 111.387 50.4117 111.051 50.4117 110.573C50.4117 110.034 50.9507 109.678 51.988 109.566L52.9846 109.454V109.698C52.9846 110.726 52.4049 111.387 51.4083 111.387ZM58.2951 106.902C58.1222 106.841 57.9188 106.81 57.7053 106.81C57.0748 106.81 56.4036 107.278 56.1087 107.929V106.892H55.2443V112.017H56.1087V110.065C56.1087 108.397 56.7697 107.614 57.5832 107.614C57.807 107.614 58.051 107.654 58.2443 107.736L58.2951 106.902ZM61.9606 111.183C61.7572 111.285 61.5233 111.315 61.3199 111.315C60.8724 111.315 60.5674 111.051 60.5674 110.512V107.654H61.9402V106.892H60.5674V105.336H59.7029V106.892H58.747V107.654H59.7029V110.481C59.7029 111.61 60.3436 112.098 61.2182 112.098C61.4928 112.098 61.7674 112.068 62.0216 111.976L61.9606 111.183ZM69.8968 112.017V111.183H66.3884L68.3206 109.536C69.4189 108.61 69.8968 107.817 69.8968 106.953C69.8968 105.661 68.9816 104.817 67.5782 104.817C66.0934 104.817 65.1172 105.844 65.229 107.339L66.124 107.4C66.0223 106.343 66.5816 105.641 67.5782 105.641C68.4121 105.641 68.9409 106.159 68.9409 106.953C68.9409 107.593 68.585 108.183 67.7511 108.905L65.0765 111.214L65.0867 112.017H69.8968Z" fill="#8D8D95"/>
<path d="M45.7357 157.441V154.451H47.5153C48.8984 154.451 49.7933 153.638 49.7933 152.387C49.7933 151.136 48.8984 150.322 47.5153 150.322H44.8102V157.441H45.7357ZM45.7357 151.146H47.4848C48.3289 151.146 48.8374 151.614 48.8374 152.387C48.8374 153.16 48.3289 153.617 47.4848 153.617H45.7357V151.146ZM52.4117 152.234C51.3337 152.234 50.4897 152.895 50.3371 153.912L51.1405 154.065C51.2117 153.373 51.71 152.956 52.4117 152.956C53.1642 152.956 53.6625 153.404 53.6625 154.105V154.207L52.6659 154.319C51.0287 154.482 50.2253 155.021 50.2253 156.007C50.2253 156.892 50.927 157.522 51.9541 157.522C52.6964 157.522 53.3676 157.156 53.6625 156.566V157.441H54.5168V154.156C54.5168 152.966 53.6524 152.234 52.4117 152.234ZM52.0863 156.81C51.4964 156.81 51.0897 156.475 51.0897 155.997C51.0897 155.458 51.6287 155.102 52.6659 154.99L53.6625 154.878V155.122C53.6625 156.149 53.0829 156.81 52.0863 156.81ZM58.9731 152.326C58.8002 152.265 58.5968 152.234 58.3833 152.234C57.7528 152.234 57.0816 152.702 56.7866 153.353V152.315H55.9222V157.441H56.7866V155.488C56.7866 153.821 57.4477 153.038 58.2612 153.038C58.485 153.038 58.729 153.078 58.9222 153.16L58.9731 152.326ZM62.6386 156.607C62.4352 156.709 62.2013 156.739 61.9979 156.739C61.5504 156.739 61.2453 156.475 61.2453 155.936V153.078H62.6182V152.315H61.2453V150.76H60.3809V152.315H59.425V153.078H60.3809V155.905C60.3809 157.034 61.0216 157.522 61.8962 157.522C62.1708 157.522 62.4453 157.492 62.6996 157.4L62.6386 156.607ZM68.2562 157.522C69.8223 157.522 70.8392 156.597 70.8392 155.224C70.8392 153.821 69.8426 152.966 68.4392 153.099L70.4629 151.126V150.322H65.9172V151.146H69.3748L67.1274 153.373L67.524 153.963C67.7477 153.821 68.0426 153.739 68.307 153.739C69.2935 153.739 69.8833 154.278 69.8833 155.204C69.8833 156.099 69.2426 156.688 68.2562 156.688C67.3511 156.688 66.6901 156.16 66.5884 155.336L65.7138 155.468C65.846 156.709 66.8528 157.522 68.2562 157.522Z" fill="#8D8D95"/>
<path d="M45.0584 66.5933V63.6034H46.8381C48.2211 63.6034 49.116 62.7899 49.116 61.539C49.116 60.2882 48.2211 59.4746 46.8381 59.4746H44.133V66.5933H45.0584ZM45.0584 60.2983H46.8076C47.6516 60.2983 48.1601 60.7661 48.1601 61.539C48.1601 62.3119 47.6516 62.7695 46.8076 62.7695H45.0584V60.2983ZM51.7345 61.3865C50.6565 61.3865 49.8124 62.0475 49.6599 63.0644L50.4633 63.217C50.5345 62.5255 51.0328 62.1085 51.7345 62.1085C52.487 62.1085 52.9853 62.556 52.9853 63.2577V63.3594L51.9887 63.4712C50.3514 63.6339 49.548 64.1729 49.548 65.1594C49.548 66.0441 50.2497 66.6746 51.2768 66.6746C52.0192 66.6746 52.6904 66.3085 52.9853 65.7187V66.5933H53.8395V63.3085C53.8395 62.1187 52.9751 61.3865 51.7345 61.3865ZM51.409 65.9628C50.8192 65.9628 50.4124 65.6272 50.4124 65.1492C50.4124 64.6102 50.9514 64.2543 51.9887 64.1424L52.9853 64.0305V64.2746C52.9853 65.3017 52.4056 65.9628 51.409 65.9628ZM58.2958 61.478C58.123 61.417 57.9196 61.3865 57.706 61.3865C57.0755 61.3865 56.4043 61.8543 56.1094 62.5051V61.4678H55.245V66.5933H56.1094V64.6407C56.1094 62.9729 56.7704 62.1899 57.584 62.1899C57.8077 62.1899 58.0518 62.2305 58.245 62.3119L58.2958 61.478ZM61.9613 65.7594C61.7579 65.8611 61.524 65.8916 61.3206 65.8916C60.8732 65.8916 60.5681 65.6272 60.5681 65.0882V62.2305H61.941V61.4678H60.5681V59.9119H59.7037V61.4678H58.7477V62.2305H59.7037V65.0577C59.7037 66.1865 60.3444 66.6746 61.2189 66.6746C61.4935 66.6746 61.7681 66.6441 62.0223 66.5526L61.9613 65.7594ZM67.5688 66.5933V59.4746H66.8365C66.3382 60.0848 65.7179 60.4509 65.006 60.6034V61.4272C65.6772 61.3051 66.206 61.0814 66.6942 60.6339V66.5933H67.5688Z" fill="white"/>
<line opacity="0.5" x1="24.7457" y1="63.729" x2="24.7457" y2="153.221" stroke="#868181" stroke-width="0.677966" stroke-dasharray="8.14 2.71"/>
<g clip-path="url(#clip0)">
<line x1="24.7457" y1="63.729" x2="24.7457" y2="153.221" stroke="#ECEDF0" stroke-width="0.677966" stroke-dasharray="8.14 2.71"/>
</g>
<circle cx="24.4071" cy="62.3729" r="8.13559" fill="#51CF76"/>
<path d="M25.0233 65.915V59.271H24.3399C23.8748 59.8405 23.2958 60.1822 22.6314 60.3245V61.0933C23.2578 60.9794 23.7514 60.7706 24.207 60.353V65.915H25.0233Z" fill="black"/>
<circle cx="24.4068" cy="107.797" r="8.13559" fill="#868181"/>
<path d="M26.5255 111.339V110.561H23.2509L25.0543 109.023C26.0794 108.159 26.5255 107.419 26.5255 106.612C26.5255 105.407 25.6713 104.619 24.3614 104.619C22.9757 104.619 22.0645 105.578 22.1689 106.973L23.0041 107.03C22.9092 106.043 23.4313 105.388 24.3614 105.388C25.1397 105.388 25.6333 105.872 25.6333 106.612C25.6333 107.21 25.3011 107.761 24.5228 108.434L22.0265 110.589L22.036 111.339H26.5255Z" fill="white"/>
<circle cx="24.4068" cy="153.221" r="8.13559" fill="#868181"/>
<path d="M24.3058 156.839C25.7675 156.839 26.7167 155.975 26.7167 154.694C26.7167 153.384 25.7865 152.586 24.4767 152.71L26.3655 150.868V150.119H22.1228V150.887H25.3499L23.2523 152.966L23.6224 153.517C23.8312 153.384 24.1065 153.308 24.3533 153.308C25.2739 153.308 25.8245 153.811 25.8245 154.675C25.8245 155.51 25.2265 156.06 24.3058 156.06C23.4611 156.06 22.8441 155.567 22.7492 154.798L21.9329 154.921C22.0563 156.079 22.996 156.839 24.3058 156.839Z" fill="white"/>
<path d="M0 8.1356C0 4.30044 0 2.38286 1.19143 1.19143C2.38286 0 4.30044 0 8.13559 0H191.864C195.7 0 197.617 0 198.809 1.19143C200 2.38286 200 4.30044 200 8.13559V37.9661H0V8.1356Z" fill="#242426"/>
<path d="M20.0679 23.5591V17.0723H22.4109V15.9659H16.4556V17.0723H18.7987V23.5591H20.0679ZM26.3712 23.6459C28.5623 23.6459 30.1678 22.0079 30.1678 19.7625C30.1678 17.517 28.5623 15.8791 26.3712 15.8791C24.18 15.8791 22.5745 17.517 22.5745 19.7625C22.5745 22.0079 24.18 23.6459 26.3712 23.6459ZM26.3712 22.5286C24.9067 22.5286 23.8545 21.3679 23.8545 19.7625C23.8545 18.157 24.9067 16.9855 26.3712 16.9855C27.8356 16.9855 28.8878 18.157 28.8878 19.7625C28.8878 21.3679 27.8356 22.5286 26.3712 22.5286ZM35.3268 23.5591V20.5001H37.0407C38.5485 20.5001 39.5248 19.6106 39.5248 18.233C39.5248 16.8554 38.5485 15.9659 37.0407 15.9659H34.0468V23.5591H35.3268ZM35.3268 17.0723H36.954C37.7567 17.0723 38.234 17.5062 38.234 18.233C38.234 18.9598 37.7567 19.3937 36.954 19.3937H35.3268V17.0723ZM46.1798 23.5591L43.2184 15.9659H42.0361L39.0856 23.5591H40.3981L41.0706 21.7693H44.1947L44.8673 23.5591H46.1798ZM42.6327 17.6364L43.7825 20.6737H41.4829L42.6327 17.6364ZM49.2936 23.5591V20.4025L51.9295 15.9659H50.5411L48.6536 19.1984L46.777 15.9659H45.3885L48.0245 20.4025V23.5591H49.2936Z" fill="white"/>
<path d="M147.563 23.1694V19.9803H149.461C150.936 19.9803 151.891 19.1125 151.891 17.7782C151.891 16.444 150.936 15.5762 149.461 15.5762H146.576V23.1694H147.563ZM147.563 16.4549H149.429C150.329 16.4549 150.871 16.9538 150.871 17.7782C150.871 18.6027 150.329 19.0908 149.429 19.0908H147.563V16.4549ZM154.684 17.6155C153.534 17.6155 152.634 18.3206 152.471 19.4054L153.328 19.5681C153.404 18.8305 153.935 18.3857 154.684 18.3857C155.487 18.3857 156.018 18.863 156.018 19.6115V19.7199L154.955 19.8393C153.209 20.0128 152.352 20.5877 152.352 21.6399C152.352 22.5837 153.1 23.2562 154.196 23.2562C154.988 23.2562 155.704 22.8657 156.018 22.2366V23.1694H156.929V19.6657C156.929 18.3966 156.007 17.6155 154.684 17.6155ZM154.337 22.4969C153.708 22.4969 153.274 22.1389 153.274 21.6291C153.274 21.0542 153.849 20.6745 154.955 20.5552L156.018 20.4359V20.6962C156.018 21.7918 155.4 22.4969 154.337 22.4969ZM158.884 16.6718C159.264 16.6718 159.546 16.3898 159.546 16.0318C159.546 15.663 159.264 15.381 158.884 15.381C158.515 15.381 158.244 15.663 158.244 16.0318C158.244 16.3898 158.515 16.6718 158.884 16.6718ZM159.351 23.1694V17.7023H158.429V23.1694H159.351ZM163.165 23.2562C163.968 23.2562 164.695 22.8766 164.944 22.3776V23.1694H165.866V15.4894H164.944V18.4833C164.597 17.9735 163.881 17.6155 163.154 17.6155C161.462 17.6155 160.529 18.8305 160.529 20.4359C160.529 22.0413 161.462 23.2562 163.165 23.2562ZM163.252 22.4318C162.178 22.4318 161.473 21.6399 161.473 20.4359C161.473 19.2318 162.178 18.4399 163.252 18.4399C164.326 18.4399 165.031 19.2318 165.031 20.4359C165.031 21.6399 164.326 22.4318 163.252 22.4318Z" fill="#8D8D95"/>
<path d="M172.199 23.1694V15.5762H171.418C170.886 16.2271 170.225 16.6176 169.465 16.7803V17.6589C170.181 17.5288 170.745 17.2901 171.266 16.8128V23.1694H172.199ZM174.018 23.1803L177.435 15.5762H176.491L173.085 23.1803H174.018ZM180.515 23.2562C182.185 23.2562 183.27 22.2691 183.27 20.8047C183.27 19.3077 182.207 18.3966 180.71 18.5376L182.869 16.4332V15.5762H178.02V16.4549H181.708L179.311 18.8305L179.734 19.4596C179.972 19.3077 180.287 19.221 180.569 19.221C181.621 19.221 182.25 19.7959 182.25 20.783C182.25 21.7376 181.567 22.3667 180.515 22.3667C179.549 22.3667 178.844 21.8027 178.736 20.924L177.803 21.065C177.944 22.3884 179.018 23.2562 180.515 23.2562Z" fill="white"/>
<defs>
<clipPath id="clip0">
<rect width="16.2712" height="16.2712" fill="white" transform="translate(16.2715 54.2373)"/>
</clipPath>
</defs>
</svg>
