<svg width="360" height="242" viewBox="0 0 360 242" fill="none" xmlns="http://www.w3.org/2000/svg">
<g clip-path="url(#clip0)">
<path d="M159.949 44.5396C159.226 43.6957 158.14 43.2134 156.935 43.1531C155.488 43.0929 154.041 43.6354 153.077 44.5999C152.293 45.3835 151.691 46.4083 151.329 47.6139C151.208 47.4933 151.088 47.3727 150.967 47.2522C149.159 45.0821 148.134 42.1887 148.134 39.3555C148.134 38.6924 147.591 38.1499 146.928 38.1499C146.265 38.1499 145.723 38.6924 145.723 39.3555C145.723 42.7312 146.928 46.1671 149.098 48.8195C149.641 49.4825 150.244 50.0853 150.907 50.5676C150.907 50.6881 150.907 50.7484 150.907 50.869C151.027 55.0886 153.077 59.1273 156.453 61.7194C156.694 61.9002 156.935 61.9605 157.176 61.9605C157.538 61.9605 157.899 61.7797 158.14 61.4783C158.562 60.9357 158.442 60.2124 157.899 59.7904C155.428 57.8615 153.8 54.968 153.378 51.8937C154.463 52.2554 155.609 52.376 156.694 52.1349C158.442 51.7732 159.949 50.447 160.552 48.6386C161.094 47.1316 160.853 45.6246 159.949 44.5396ZM158.321 47.855C157.96 48.8195 157.116 49.6031 156.272 49.7839C155.307 49.9648 154.343 49.7237 153.439 49.2414C153.559 48.2167 153.921 47.1316 154.765 46.348C155.307 45.8657 156.091 45.5643 156.814 45.5643C157.176 45.5643 157.779 45.6849 158.14 46.1069C158.623 46.7097 158.442 47.433 158.321 47.855Z" fill="#FFF061"/>
<path d="M272.015 85.4134C271.834 85.4134 271.714 85.4134 271.533 85.3531C270.93 85.112 270.628 84.3886 270.87 83.7858C272.497 79.8074 275.15 76.3111 278.585 73.7191C279.128 73.2971 279.851 73.4177 280.273 73.9602C280.695 74.5027 280.575 75.2261 280.032 75.648C276.958 77.999 274.547 81.1335 273.1 84.7503C272.919 85.112 272.497 85.4134 272.015 85.4134Z" fill="#00DCC8"/>
<path d="M282.997 114.78C283.317 114.64 283.603 114.474 283.933 114.394C285.025 114.016 286.178 113.846 287.427 113.693C288.069 113.629 288.737 113.531 289.431 113.398C291.998 112.926 293.886 111.842 294.824 110.214C295.497 109.092 295.611 107.555 295.111 106.264C294.672 105.181 293.853 104.464 292.854 104.208C292.402 104.089 291.917 104.377 291.797 104.829C291.678 105.281 291.966 105.766 292.418 105.885C293.061 106.039 293.359 106.584 293.499 106.905C293.798 107.667 293.785 108.631 293.353 109.284C292.483 110.746 290.559 111.37 289.111 111.646C288.478 111.77 287.871 111.86 287.229 111.923C285.979 112.076 284.609 112.247 283.344 112.713C282.52 113.02 281.715 113.449 281.014 113.956C279.442 113.598 277.628 113.711 275.834 114.378C273.096 115.371 270.935 117.334 269.921 119.716C269.758 120.082 269.881 120.498 270.195 120.731C270.264 120.782 270.299 120.808 270.395 120.825C270.855 121.005 271.349 120.778 271.538 120.378C272.337 118.43 274.179 116.824 276.414 115.999C277.42 115.664 278.417 115.486 279.346 115.474C279.268 115.578 279.19 115.683 279.113 115.787C278.198 116.946 277.674 118.232 277.575 119.457C277.487 120.959 278.109 122.449 279.224 123.277L279.259 123.303C280.234 124.028 281.493 124.152 282.733 123.722C284.119 123.238 285.199 122.148 285.567 120.853C286.234 118.646 285.112 116.082 282.997 114.78ZM282.179 122.066C281.468 122.295 280.747 122.246 280.26 121.884L280.225 121.858C279.598 121.392 279.186 120.491 279.294 119.545C279.35 118.451 279.954 117.493 280.445 116.831C280.704 116.483 281.059 116.152 281.387 115.855C281.552 115.924 281.718 115.993 281.822 116.07C283.466 116.913 284.36 118.767 283.907 120.323C283.711 121.096 283.037 121.785 282.179 122.066Z" fill="#F19E21"/>
<path d="M262.798 214.674C262.214 213.577 261.177 212.904 259.876 212.668C258.312 212.374 256.572 212.87 255.46 213.892C254.391 214.841 253.674 216.2 253.233 217.925C251.363 216.9 249.873 215.407 248.822 214.178C248.471 213.768 248.077 213.183 247.668 212.539C249.964 212.776 252.245 211.959 253.65 210.367C254.66 209.184 255.174 207.503 254.956 205.88C254.767 204.374 254.081 203.116 252.956 202.34C251.671 201.417 249.946 201.226 248.235 201.838C246.187 202.596 244.563 204.305 244.063 206.293C243.902 206.892 243.814 207.535 243.828 208.091C243.171 207.447 242.601 206.657 242.076 205.794C240.981 203.892 240.296 201.64 239.64 199.505C239.48 198.861 238.837 198.525 238.135 198.699C237.492 198.859 237.111 199.575 237.33 200.204C238.029 202.515 238.685 204.899 239.969 207.064C241.151 209.068 242.67 210.678 244.453 211.6C245.08 213.37 246.116 214.789 246.92 215.77C248.248 217.365 250.22 219.296 252.821 220.512C252.716 223.085 253.838 227.838 256.335 230.136C257.475 231.219 258.834 231.688 260.296 231.573C260.354 231.558 260.413 231.543 260.471 231.529C261.056 231.383 261.422 230.857 261.394 230.243C261.292 229.585 260.737 229.102 260.079 229.204C259.348 229.262 258.676 229.056 258.018 228.412C256.382 226.832 255.362 223.483 255.321 221.319L255.379 221.304C257.542 221.76 259.59 221.499 261.023 220.521C263.057 219.207 263.834 216.591 262.798 214.674ZM246.501 209.848C246.268 208.912 246.211 207.933 246.446 206.88C246.769 205.682 247.852 204.542 249.095 204.046C249.607 203.857 250.674 203.653 251.566 204.239C252.106 204.664 252.456 205.322 252.587 206.097C252.703 207.062 252.395 208.07 251.81 208.713C250.639 209.998 248.518 210.464 246.618 209.819C246.633 209.877 246.56 209.834 246.501 209.848ZM259.709 218.487C258.422 219.304 256.756 219.098 255.908 218.936C255.776 218.907 255.645 218.878 255.513 218.848C255.778 217.416 256.261 216.364 257.081 215.663C257.695 215.137 258.617 214.846 259.464 215.007C259.859 215.095 260.4 215.271 260.648 215.769C261.129 216.705 260.573 217.962 259.709 218.487Z" fill="#FFF061"/>
<path d="M171.275 250.189C171.485 247.276 171.515 243.943 169.983 241.091C169.803 240.73 169.593 240.4 169.353 240.1C170.073 239.439 170.704 238.629 171.154 237.758C171.725 236.587 172.025 235.326 172.025 234.004C173.497 233.134 174.668 231.842 175.418 230.491C177.04 227.609 177.25 224.216 177.25 221.273C177.25 220.793 176.89 220.432 176.409 220.432C175.929 220.432 175.568 220.793 175.568 221.273C175.568 223.975 175.388 227.098 173.977 229.651C173.467 230.581 172.746 231.422 171.845 232.083C171.695 231.392 171.425 230.701 171.064 230.101C170.344 228.78 169.323 227.819 168.152 227.368C166.68 226.798 164.999 227.158 164.008 228.209C162.957 229.32 162.807 231.152 163.618 232.563C164.278 233.764 165.569 234.635 167.131 234.935C168.242 235.145 169.353 235.055 170.374 234.755C170.284 235.506 170.073 236.256 169.743 236.947C169.383 237.668 168.872 238.298 168.302 238.809C166.53 237.217 164.038 236.347 161.696 237.247C161.606 237.277 161.576 237.307 161.486 237.337C160.945 237.758 160.615 238.328 160.585 239.079C160.525 239.92 160.885 240.761 161.486 241.301C162.296 242.052 163.558 242.352 165.029 242.142C166.08 241.992 167.131 241.601 168.092 241.061C168.272 241.301 168.452 241.601 168.572 241.841C169.893 244.304 169.863 247.336 169.653 250.009C169.623 250.279 169.743 250.519 169.893 250.669C170.043 250.82 170.224 250.88 170.434 250.91C170.794 251.03 171.214 250.669 171.275 250.189ZM167.371 233.314C166.32 233.104 165.449 232.533 165.029 231.752C164.609 230.972 164.669 229.951 165.179 229.38C165.69 228.81 166.65 228.69 167.491 228.99C167.912 229.17 168.332 229.41 168.692 229.771C169.023 230.101 169.293 230.491 169.563 230.942C169.893 231.572 170.134 232.293 170.254 233.014C169.293 233.374 168.332 233.494 167.371 233.314ZM164.699 240.55C164.158 240.61 163.137 240.67 162.537 240.13C162.326 239.92 162.176 239.589 162.206 239.259C162.206 239.139 162.236 238.989 162.357 238.869C163.858 238.388 165.509 238.899 166.77 239.92C166.08 240.19 165.419 240.43 164.699 240.55Z" fill="#BEDFDF"/>
<path d="M108.031 191.536C107.533 190.872 106.745 190.416 105.915 190.333C105.127 190.25 104.338 190.374 103.467 190.789C103.26 189.213 103.592 187.553 104.421 186.184C104.67 185.769 104.546 185.271 104.131 185.022C103.758 184.773 103.218 184.898 103.011 185.313C101.849 187.221 101.476 189.544 101.932 191.702C100.19 193.029 98.8205 194.855 98.0322 196.888C95.0451 196.473 91.1037 196.971 89.4027 198.921C89.1123 199.253 89.1538 199.792 89.4857 200.082C89.8176 200.373 90.3569 200.331 90.6473 199.999C91.892 198.589 95.0866 198.174 97.5344 198.464C97.3684 199.087 97.2854 199.75 97.2439 200.414C97.161 202.281 97.7418 203.692 98.9449 204.314C99.3183 204.522 99.6917 204.605 100.107 204.605C100.604 204.605 101.102 204.48 101.559 204.19C102.554 203.609 103.177 202.53 103.218 201.493C103.26 199.502 101.683 198.008 100.107 197.386C99.9821 197.344 99.8162 197.261 99.6502 197.22C100.273 195.726 101.227 194.399 102.471 193.361C102.845 194.15 103.467 194.938 104.463 195.353C105.293 195.726 106.371 195.685 107.201 195.187C107.906 194.772 108.404 194.108 108.487 193.403C108.653 192.78 108.446 192.117 108.031 191.536ZM101.6 201.493C101.6 201.991 101.268 202.53 100.77 202.821C100.563 202.945 100.148 203.111 99.7747 202.904C98.9449 202.447 98.9449 200.995 98.9864 200.539C99.0279 199.958 99.1109 199.377 99.2354 198.838C99.3598 198.879 99.4843 198.921 99.6088 198.962C100.563 199.377 101.642 200.331 101.6 201.493ZM106.454 193.776C106.081 193.984 105.542 194.025 105.168 193.859C104.546 193.569 104.131 192.988 103.882 192.407C104.546 192.034 105.168 191.909 105.707 191.951C106.081 191.992 106.454 192.241 106.703 192.532C106.828 192.698 106.952 192.905 106.911 193.154C106.869 193.486 106.62 193.652 106.454 193.776Z" fill="#FFF061"/>
<path d="M76.2081 110.029C75.9377 110.011 75.6312 110.025 75.3247 110.039C74.7148 108.98 73.8616 108.008 72.7835 107.36C69.9459 105.579 65.9485 105.963 63.459 108.211C63.0628 108.559 63.023 109.167 63.3706 109.564C63.7182 109.96 64.3268 110 64.6913 109.616C66.5686 107.905 69.5386 107.658 71.6588 108.985C72.3445 109.403 72.8861 109.947 73.3197 110.587C72.6891 110.885 72.1216 111.256 71.649 111.734C70.5597 112.817 69.9621 114.17 69.9369 115.595C69.9794 117.023 70.8245 118.64 72.3708 118.877C74.084 119.159 75.4387 117.651 75.9503 116.055C76.3451 114.689 76.3387 113.229 75.9853 111.881C78.0498 111.982 80.0127 113.638 80.7504 115.859C81.3977 117.905 81.1035 120.33 79.9347 122.631C79.7009 123.091 79.9001 123.681 80.3601 123.915C80.721 124.108 81.1671 124.035 81.4552 123.782C81.5272 123.719 81.6353 123.624 81.6757 123.525C83.0783 120.765 83.4078 117.798 82.6202 115.302C81.7282 112.324 79.084 110.182 76.2081 110.029ZM74.2504 115.571C73.9946 116.369 73.4007 117.145 72.8281 117.074C72.3592 116.975 71.9977 116.272 72.0059 115.628C71.9956 114.744 72.3911 113.887 73.1159 113.188C73.1879 113.125 73.2239 113.093 73.2959 113.03C73.5841 112.777 73.9398 112.529 74.2911 112.348C74.527 113.416 74.5555 114.538 74.2504 115.571Z" fill="#00DCC8"/>
<path d="M120.249 221.603C120.065 221.603 119.882 221.53 119.736 221.383C119.442 221.09 119.442 220.65 119.736 220.357C121.532 218.56 123.768 217.167 126.151 216.324C126.517 216.178 126.957 216.398 127.067 216.764C127.214 217.131 126.994 217.571 126.627 217.681C124.428 218.45 122.412 219.733 120.762 221.346C120.615 221.53 120.432 221.603 120.249 221.603Z" fill="#00DCC8"/>
<path d="M100.289 93.9187C100.048 93.9187 99.7466 93.8584 99.5658 93.6776C96.7326 91.4472 93.9597 88.9757 91.428 86.3234C90.9457 85.8412 90.9457 85.0576 91.428 84.6356C91.9102 84.1534 92.6938 84.1534 93.1158 84.6356C95.5873 87.1674 98.2396 89.5785 101.012 91.7486C101.555 92.1706 101.615 92.8939 101.193 93.4364C101.012 93.7378 100.651 93.9187 100.289 93.9187Z" fill="#F19E21"/>
<path d="M119.751 71.4335C119.148 71.4335 118.605 70.9512 118.545 70.3484L118.123 66.7316C118.063 66.0686 118.545 65.4658 119.208 65.4055C119.871 65.3452 120.474 65.8274 120.534 66.4905L120.956 70.1073C121.016 70.7704 120.534 71.3732 119.871 71.4335C119.871 71.4335 119.811 71.4335 119.751 71.4335Z" fill="#F19E21"/>
<path d="M183.061 35.0682C183 34.9644 182.908 34.8088 182.898 34.6744C182.5 32.1081 182.609 29.4519 183.296 26.9438C183.465 26.2832 184.17 25.9359 184.779 26.1359C185.44 26.3053 185.787 27.0103 185.587 27.6191C184.985 29.7968 184.878 32.1016 185.226 34.3471C185.326 34.9886 184.857 35.6165 184.215 35.716C183.76 35.7753 183.307 35.4832 183.061 35.0682Z" fill="#00DCC8"/>
<path d="M70.8488 183.338L64.4917 185.949C63.8806 186.206 63.1701 185.917 62.9128 185.306C62.6556 184.694 62.9451 183.984 63.5562 183.727L69.8577 181.139C70.4688 180.882 71.1793 181.172 71.4366 181.783C71.7494 182.371 71.4599 183.081 70.8488 183.338Z" fill="#F19E21"/>
<path d="M201.364 176.177C200.761 176.177 200.219 175.694 200.158 175.092C200.098 174.428 200.58 173.826 201.243 173.765C203.052 173.585 204.8 172.68 205.945 171.234C206.367 170.691 207.151 170.631 207.633 171.053C208.176 171.475 208.236 172.258 207.814 172.741C206.247 174.67 203.956 175.935 201.484 176.177C201.424 176.177 201.424 176.177 201.364 176.177Z" fill="#FFF061"/>
<path d="M210.954 57.2664L210.05 56.7238C209.809 56.543 209.507 56.543 209.206 56.6636L208.241 57.0855C207.578 57.3869 206.855 56.7841 207.036 56.0608L207.277 55.036C207.337 54.7346 207.277 54.4332 207.096 54.2524L206.433 53.4687C205.951 52.9262 206.312 52.022 207.036 52.022L208.061 51.9617C208.362 51.9617 208.603 51.7809 208.784 51.5398L209.326 50.6356C209.688 50.0328 210.653 50.0931 210.894 50.7562L211.255 51.7206C211.376 52.022 211.617 52.2029 211.858 52.2631L212.883 52.5043C213.606 52.6851 213.847 53.5893 213.245 54.0715L212.461 54.7346C212.22 54.9155 212.099 55.2169 212.16 55.5183L212.28 56.543C212.34 57.1458 211.557 57.6281 210.954 57.2664Z" fill="#00DCC8"/>
<path d="M72.9252 65.9379C72.8649 65.9379 72.8649 65.9379 72.9252 65.9379C71.1771 65.757 69.7304 64.3706 69.4892 62.6225C69.4892 62.6225 69.4892 62.6225 69.4892 62.5622C69.3687 61.7785 68.4042 61.4771 67.922 62.0799C67.3192 62.8636 66.9575 63.8281 67.078 64.9131C67.2589 66.7818 68.8262 68.2888 70.6948 68.4094C71.7799 68.4696 72.7443 68.108 73.528 67.4449C74.0102 66.9626 73.7088 65.9982 72.9252 65.9379Z" fill="#00DCC8"/>
<path d="M282.212 173.531C281.851 173.531 281.489 173.41 281.308 173.109C279.681 171.18 277.33 169.853 274.858 169.492C274.195 169.371 273.713 168.768 273.833 168.105C273.954 167.442 274.557 166.96 275.22 167.081C278.294 167.503 281.248 169.13 283.177 171.541C283.599 172.084 283.538 172.807 282.996 173.229C282.755 173.41 282.453 173.531 282.212 173.531Z" fill="#00DCC8"/>
</g>
<path d="M122.076 105.142C127.825 95.1383 136.104 86.8219 146.083 81.0279C156.061 75.234 167.388 72.1661 178.926 72.1321C190.465 72.0982 201.809 75.0993 211.821 80.8345C221.834 86.5697 230.162 94.8371 235.97 104.807L179.12 137.924L122.076 105.142Z" fill="#00DCC8"/>
<path d="M235.444 103.918C241.231 113.901 244.29 125.23 244.315 136.769C244.34 148.307 241.33 159.649 235.588 169.657C229.845 179.665 221.571 187.987 211.597 193.787C201.622 199.588 190.297 202.663 178.759 202.704L178.523 136.912L235.444 103.918Z" fill="#00DCC8"/>
<path d="M179.717 202.705C168.179 202.705 156.843 199.67 146.848 193.905C136.852 188.141 128.549 179.849 122.77 169.862C116.992 159.874 113.941 148.543 113.925 137.004C113.909 125.466 116.928 114.126 122.678 104.123L179.717 136.912L179.717 202.705Z" fill="#00DCC8"/>
<circle cx="178.802" cy="137.418" r="71.8358" fill="#00DCC8"/>
<circle cx="178.802" cy="137.418" r="71.8358" fill="url(#paint0_linear)"/>
<circle cx="178.802" cy="137.418" r="71.8358" fill="url(#paint1_radial)"/>
<path d="M147.559 134.912C148.708 134.912 149.755 134.44 150.182 133.718V134.794H152.304V129.18H147.353V131.036H150.152C150.02 132.142 149.047 132.908 147.677 132.908C145.997 132.908 144.803 131.714 144.803 129.637C144.803 127.559 145.997 126.35 147.706 126.35C148.988 126.35 149.946 127.146 150.182 128.355L152.481 127.883C152.098 125.687 150.315 124.361 147.736 124.361C144.995 124.361 142.475 126.115 142.475 129.637C142.475 133.158 144.921 134.912 147.559 134.912ZM161.113 130.889C161.113 129.239 159.979 127.249 157.297 127.249C154.733 127.249 153.613 129.239 153.613 131.081C153.613 132.923 154.865 134.912 157.429 134.912C159.198 134.912 160.524 134.101 160.966 132.701L158.932 132.156C158.77 132.775 158.225 133.114 157.488 133.114C156.575 133.114 155.956 132.613 155.75 131.699H161.084C161.099 131.537 161.113 131.184 161.113 130.889ZM155.779 130.167C155.985 129.298 156.516 128.856 157.297 128.856C158.255 128.856 158.726 129.415 158.8 130.167H155.779ZM166.75 132.849C166.499 132.981 166.175 133.026 165.91 133.026C165.379 133.026 165.026 132.643 165.026 131.979V129.165H166.823V127.367H165.026V125.216H162.859V127.367H161.681V129.165H162.859V132.259C162.859 134.057 164.082 134.912 165.689 134.912C166.131 134.912 166.543 134.838 166.897 134.72L166.75 132.849ZM172.563 132.849C172.313 132.981 171.989 133.026 171.723 133.026C171.193 133.026 170.839 132.643 170.839 131.979V129.165H172.637V127.367H170.839V125.216H168.673V127.367H167.494V129.165H168.673V132.259C168.673 134.057 169.896 134.912 171.502 134.912C171.944 134.912 172.357 134.838 172.711 134.72L172.563 132.849ZM174.973 126.38C175.724 126.38 176.299 125.805 176.299 125.083C176.299 124.376 175.724 123.801 174.973 123.801C174.236 123.801 173.691 124.376 173.691 125.083C173.691 125.805 174.236 126.38 174.973 126.38ZM176.063 134.794V127.367H173.897V134.794H176.063ZM179.906 134.794V131.537C179.906 130.005 180.436 129.165 181.468 129.165C182.249 129.165 182.75 129.71 182.75 130.521V134.794H184.901V129.946C184.901 128.31 183.811 127.249 182.175 127.249C181.158 127.249 180.348 127.706 179.906 128.355V127.367H177.739V134.794H179.906ZM191.511 128.001C191.114 127.544 190.436 127.249 189.566 127.249C187.503 127.249 186.207 128.664 186.207 130.904C186.207 133.144 187.503 134.558 189.611 134.558C190.421 134.558 191.143 134.278 191.526 133.792V134.499C191.526 135.324 190.863 135.899 189.846 135.899C189.124 135.899 188.491 135.545 188.388 134.941L186.413 135.251C186.678 136.651 188.108 137.594 189.846 137.594C192.13 137.594 193.648 136.253 193.648 134.263V127.367H191.511V128.001ZM189.964 132.716C188.962 132.716 188.314 132.009 188.314 130.904C188.314 129.799 188.962 129.091 189.964 129.091C190.981 129.091 191.629 129.799 191.629 130.904C191.629 132.009 190.981 132.716 189.964 132.716ZM202.917 134.794V124.479H201.163C200.382 125.142 199.365 125.717 198.437 125.938V128.016C199.321 127.839 200.073 127.47 200.765 126.955V134.794H202.917ZM206.564 129.548C208.023 129.548 208.966 128.517 208.966 126.955C208.966 125.393 208.023 124.361 206.564 124.361C205.09 124.361 204.147 125.393 204.147 126.955C204.147 128.517 205.09 129.548 206.564 129.548ZM213.814 124.479H212.105L205.208 134.794H206.918L213.814 124.479ZM206.564 128.119C206.034 128.119 205.739 127.691 205.739 126.955C205.739 126.218 206.034 125.791 206.564 125.791C207.08 125.791 207.36 126.218 207.36 126.955C207.36 127.691 207.08 128.119 206.564 128.119ZM212.502 134.912C213.961 134.912 214.904 133.88 214.904 132.318C214.904 130.756 213.961 129.725 212.502 129.725C211.029 129.725 210.086 130.756 210.086 132.318C210.086 133.88 211.029 134.912 212.502 134.912ZM212.502 133.482C211.972 133.482 211.677 133.055 211.677 132.318C211.677 131.582 211.972 131.154 212.502 131.154C213.018 131.154 213.313 131.582 213.313 132.318C213.313 133.055 213.018 133.482 212.502 133.482ZM160.398 146.367C160.191 146.294 159.852 146.249 159.602 146.249C158.718 146.249 157.76 146.854 157.421 147.649V146.367H155.255V153.794H157.421V151.112C157.421 149.005 158.349 148.268 159.322 148.268C159.661 148.268 160.014 148.327 160.265 148.445L160.398 146.367ZM168.301 149.889C168.301 148.239 167.167 146.249 164.485 146.249C161.921 146.249 160.801 148.239 160.801 150.081C160.801 151.923 162.053 153.912 164.617 153.912C166.386 153.912 167.712 153.101 168.154 151.701L166.12 151.156C165.958 151.775 165.413 152.114 164.676 152.114C163.763 152.114 163.144 151.613 162.937 150.699H168.272C168.286 150.537 168.301 150.184 168.301 149.889ZM162.967 149.167C163.173 148.298 163.704 147.856 164.485 147.856C165.442 147.856 165.914 148.415 165.988 149.167H162.967ZM172.94 153.794L174.354 149.344L175.754 153.794H177.64L179.954 146.367H177.788L176.682 150.773L175.327 146.367H173.367L172.011 150.773L170.906 146.367H168.74L171.053 153.794H172.94ZM183.686 146.249C182.094 146.249 180.739 147.192 180.503 148.651L182.389 149.005C182.463 148.283 182.979 147.856 183.686 147.856C184.482 147.856 184.983 148.298 184.983 149.034V149.079L183.642 149.211C181.505 149.432 180.429 150.228 180.429 151.701C180.429 152.939 181.446 153.912 182.89 153.912C183.715 153.912 184.555 153.499 184.983 152.851V153.794H187.075V149.388C187.075 147.296 185.705 146.249 183.686 146.249ZM183.421 152.365C182.816 152.365 182.492 152.04 182.492 151.628C182.492 151.2 182.861 150.832 183.597 150.758L184.983 150.596V150.655V150.699V150.714C184.968 151.584 184.393 152.365 183.421 152.365ZM193.898 146.367C193.692 146.294 193.353 146.249 193.102 146.249C192.218 146.249 191.26 146.854 190.921 147.649V146.367H188.755V153.794H190.921V151.112C190.921 149.005 191.85 148.268 192.822 148.268C193.161 148.268 193.515 148.327 193.765 148.445L193.898 146.367ZM197.793 153.912C198.633 153.912 199.385 153.588 199.768 153.057V153.794H201.934V143.361H199.768V147.075C199.355 146.574 198.663 146.249 197.764 146.249C195.613 146.249 194.301 147.752 194.301 150.081C194.301 152.409 195.613 153.912 197.793 153.912ZM198.147 152.07C197.116 152.07 196.408 151.274 196.408 150.081C196.408 148.887 197.116 148.091 198.147 148.091C199.208 148.091 199.901 148.887 199.901 150.081C199.901 151.274 199.208 152.07 198.147 152.07Z" fill="black"/>
<path d="M147.559 134.912C148.708 134.912 149.755 134.44 150.182 133.718V134.794H152.304V129.18H147.353V131.036H150.152C150.02 132.142 149.047 132.908 147.677 132.908C145.997 132.908 144.803 131.714 144.803 129.637C144.803 127.559 145.997 126.35 147.706 126.35C148.988 126.35 149.946 127.146 150.182 128.355L152.481 127.883C152.098 125.687 150.315 124.361 147.736 124.361C144.995 124.361 142.475 126.115 142.475 129.637C142.475 133.158 144.921 134.912 147.559 134.912ZM161.113 130.889C161.113 129.239 159.979 127.249 157.297 127.249C154.733 127.249 153.613 129.239 153.613 131.081C153.613 132.923 154.865 134.912 157.429 134.912C159.198 134.912 160.524 134.101 160.966 132.701L158.932 132.156C158.77 132.775 158.225 133.114 157.488 133.114C156.575 133.114 155.956 132.613 155.75 131.699H161.084C161.099 131.537 161.113 131.184 161.113 130.889ZM155.779 130.167C155.985 129.298 156.516 128.856 157.297 128.856C158.255 128.856 158.726 129.415 158.8 130.167H155.779ZM166.75 132.849C166.499 132.981 166.175 133.026 165.91 133.026C165.379 133.026 165.026 132.643 165.026 131.979V129.165H166.823V127.367H165.026V125.216H162.859V127.367H161.681V129.165H162.859V132.259C162.859 134.057 164.082 134.912 165.689 134.912C166.131 134.912 166.543 134.838 166.897 134.72L166.75 132.849ZM172.563 132.849C172.313 132.981 171.989 133.026 171.723 133.026C171.193 133.026 170.839 132.643 170.839 131.979V129.165H172.637V127.367H170.839V125.216H168.673V127.367H167.494V129.165H168.673V132.259C168.673 134.057 169.896 134.912 171.502 134.912C171.944 134.912 172.357 134.838 172.711 134.72L172.563 132.849ZM174.973 126.38C175.724 126.38 176.299 125.805 176.299 125.083C176.299 124.376 175.724 123.801 174.973 123.801C174.236 123.801 173.691 124.376 173.691 125.083C173.691 125.805 174.236 126.38 174.973 126.38ZM176.063 134.794V127.367H173.897V134.794H176.063ZM179.906 134.794V131.537C179.906 130.005 180.436 129.165 181.468 129.165C182.249 129.165 182.75 129.71 182.75 130.521V134.794H184.901V129.946C184.901 128.31 183.811 127.249 182.175 127.249C181.158 127.249 180.348 127.706 179.906 128.355V127.367H177.739V134.794H179.906ZM191.511 128.001C191.114 127.544 190.436 127.249 189.566 127.249C187.503 127.249 186.207 128.664 186.207 130.904C186.207 133.144 187.503 134.558 189.611 134.558C190.421 134.558 191.143 134.278 191.526 133.792V134.499C191.526 135.324 190.863 135.899 189.846 135.899C189.124 135.899 188.491 135.545 188.388 134.941L186.413 135.251C186.678 136.651 188.108 137.594 189.846 137.594C192.13 137.594 193.648 136.253 193.648 134.263V127.367H191.511V128.001ZM189.964 132.716C188.962 132.716 188.314 132.009 188.314 130.904C188.314 129.799 188.962 129.091 189.964 129.091C190.981 129.091 191.629 129.799 191.629 130.904C191.629 132.009 190.981 132.716 189.964 132.716ZM202.917 134.794V124.479H201.163C200.382 125.142 199.365 125.717 198.437 125.938V128.016C199.321 127.839 200.073 127.47 200.765 126.955V134.794H202.917ZM206.564 129.548C208.023 129.548 208.966 128.517 208.966 126.955C208.966 125.393 208.023 124.361 206.564 124.361C205.09 124.361 204.147 125.393 204.147 126.955C204.147 128.517 205.09 129.548 206.564 129.548ZM213.814 124.479H212.105L205.208 134.794H206.918L213.814 124.479ZM206.564 128.119C206.034 128.119 205.739 127.691 205.739 126.955C205.739 126.218 206.034 125.791 206.564 125.791C207.08 125.791 207.36 126.218 207.36 126.955C207.36 127.691 207.08 128.119 206.564 128.119ZM212.502 134.912C213.961 134.912 214.904 133.88 214.904 132.318C214.904 130.756 213.961 129.725 212.502 129.725C211.029 129.725 210.086 130.756 210.086 132.318C210.086 133.88 211.029 134.912 212.502 134.912ZM212.502 133.482C211.972 133.482 211.677 133.055 211.677 132.318C211.677 131.582 211.972 131.154 212.502 131.154C213.018 131.154 213.313 131.582 213.313 132.318C213.313 133.055 213.018 133.482 212.502 133.482ZM160.398 146.367C160.191 146.294 159.852 146.249 159.602 146.249C158.718 146.249 157.76 146.854 157.421 147.649V146.367H155.255V153.794H157.421V151.112C157.421 149.005 158.349 148.268 159.322 148.268C159.661 148.268 160.014 148.327 160.265 148.445L160.398 146.367ZM168.301 149.889C168.301 148.239 167.167 146.249 164.485 146.249C161.921 146.249 160.801 148.239 160.801 150.081C160.801 151.923 162.053 153.912 164.617 153.912C166.386 153.912 167.712 153.101 168.154 151.701L166.12 151.156C165.958 151.775 165.413 152.114 164.676 152.114C163.763 152.114 163.144 151.613 162.937 150.699H168.272C168.286 150.537 168.301 150.184 168.301 149.889ZM162.967 149.167C163.173 148.298 163.704 147.856 164.485 147.856C165.442 147.856 165.914 148.415 165.988 149.167H162.967ZM172.94 153.794L174.354 149.344L175.754 153.794H177.64L179.954 146.367H177.788L176.682 150.773L175.327 146.367H173.367L172.011 150.773L170.906 146.367H168.74L171.053 153.794H172.94ZM183.686 146.249C182.094 146.249 180.739 147.192 180.503 148.651L182.389 149.005C182.463 148.283 182.979 147.856 183.686 147.856C184.482 147.856 184.983 148.298 184.983 149.034V149.079L183.642 149.211C181.505 149.432 180.429 150.228 180.429 151.701C180.429 152.939 181.446 153.912 182.89 153.912C183.715 153.912 184.555 153.499 184.983 152.851V153.794H187.075V149.388C187.075 147.296 185.705 146.249 183.686 146.249ZM183.421 152.365C182.816 152.365 182.492 152.04 182.492 151.628C182.492 151.2 182.861 150.832 183.597 150.758L184.983 150.596V150.655V150.699V150.714C184.968 151.584 184.393 152.365 183.421 152.365ZM193.898 146.367C193.692 146.294 193.353 146.249 193.102 146.249C192.218 146.249 191.26 146.854 190.921 147.649V146.367H188.755V153.794H190.921V151.112C190.921 149.005 191.85 148.268 192.822 148.268C193.161 148.268 193.515 148.327 193.765 148.445L193.898 146.367ZM197.793 153.912C198.633 153.912 199.385 153.588 199.768 153.057V153.794H201.934V143.361H199.768V147.075C199.355 146.574 198.663 146.249 197.764 146.249C195.613 146.249 194.301 147.752 194.301 150.081C194.301 152.409 195.613 153.912 197.793 153.912ZM198.147 152.07C197.116 152.07 196.408 151.274 196.408 150.081C196.408 148.887 197.116 148.091 198.147 148.091C199.208 148.091 199.901 148.887 199.901 150.081C199.901 151.274 199.208 152.07 198.147 152.07Z" fill="url(#paint2_radial)"/>
<defs>
<linearGradient id="paint0_linear" x1="178.802" y1="65.5825" x2="178.802" y2="209.254" gradientUnits="userSpaceOnUse">
<stop stop-color="#FFF061"/>
<stop offset="0.140625" stop-color="#E7EE6B" stop-opacity="0.90625"/>
<stop offset="1" stop-color="#00DCC8" stop-opacity="0"/>
</linearGradient>
<radialGradient id="paint1_radial" cx="0" cy="0" r="1" gradientUnits="userSpaceOnUse" gradientTransform="translate(148.627 95.0825) rotate(60.3393) scale(95.1067 149.131)">
<stop stop-color="white" stop-opacity="0.92"/>
<stop offset="0.168066" stop-color="white" stop-opacity="0.74"/>
<stop offset="1" stop-color="#00DCC8" stop-opacity="0"/>
</radialGradient>
<radialGradient id="paint2_radial" cx="0" cy="0" r="1" gradientUnits="userSpaceOnUse" gradientTransform="translate(167.546 116.338) rotate(74.8904) scale(42.3978 100.131)">
<stop stop-color="#808080"/>
<stop offset="1" stop-opacity="0"/>
</radialGradient>
<clipPath id="clip0">
<rect width="359.7" height="242" fill="white"/>
</clipPath>
</defs>
</svg>
