<svg width="153" height="49" viewBox="0 0 153 49" fill="none" xmlns="http://www.w3.org/2000/svg">
<g clip-path="url(#clip0)">
<path d="M66.3 48.2932H53.9059L61.658 0.859863H74.0514L66.3 48.2932Z" fill="black"/>
<path d="M111.229 2.01942C108.785 1.05968 104.907 0 100.113 0C87.8734 0 79.2544 6.45867 79.2016 15.6926C79.0999 22.5054 85.3725 26.2894 90.0639 28.561C94.859 30.8822 96.489 32.3973 96.489 34.4663C96.4402 37.644 92.6143 39.1088 89.0459 39.1088C84.0977 39.1088 81.4463 38.3536 77.4171 36.5857L75.785 35.8278L74.0507 46.4756C76.9575 47.7861 82.3131 48.949 87.8734 49C100.878 49 109.345 42.6413 109.445 32.801C109.494 27.4014 106.182 23.2639 99.0414 19.883C94.7065 17.7127 92.0518 16.2493 92.0518 14.0287C92.1026 12.0099 94.2972 9.94219 99.1905 9.94219C103.22 9.84091 106.18 10.7993 108.423 11.7584L109.544 12.2621L111.229 2.01942Z" fill="black"/>
<path d="M127.702 31.4892C128.723 28.7643 132.65 18.2178 132.65 18.2178C132.599 18.3191 133.669 15.4425 134.281 13.6766L135.147 17.7637C135.147 17.7637 137.494 29.1177 138.004 31.4892C136.067 31.4892 130.15 31.4892 127.702 31.4892ZM143.001 0.859863H133.414C130.458 0.859863 128.212 1.71699 126.936 4.79542L108.526 48.2925H121.531C121.531 48.2925 123.672 42.4381 124.132 41.1772C125.559 41.1772 138.21 41.1772 140.045 41.1772C140.401 42.8425 141.524 48.2925 141.524 48.2925H153L143.001 0.859863Z" fill="black"/>
<path d="M43.5539 0.859863L31.416 33.2048L30.0896 26.6449C27.8456 19.0756 20.8078 10.8517 12.954 6.76253L24.0718 48.2429H37.1782L56.6596 0.859863H43.5539Z" fill="black"/>
<path d="M20.1449 0.859863H0.204003L0 1.81827C15.5551 5.7545 25.857 15.2426 30.0895 26.6469L25.7546 4.84707C25.0409 1.8176 22.8477 0.959795 20.1449 0.859863Z" fill="black"/>
</g>
<defs>
<clipPath id="clip0">
<rect width="153" height="49" fill="white"/>
</clipPath>
</defs>
</svg>
